<svg id="Layer_1" data-name="Layer 1" xmlns="http://www.w3.org/2000/svg" viewBox="0 0 777.19 75.3"><defs><style>.cls-1{fill:#2ab7a4;}</style></defs><title>ALLSALE CLUB LOGO</title><path class="cls-1" d="M111.06,263.79h8.3v60.09h33.57v7.63H111.06V263.79Z" transform="translate(-32.16 -259.33)"/><path class="cls-1" d="M154.86,333.43H109.14V261.87h12.14V322h33.57v11.48ZM113,329.59h38V325.8H117.44V265.71H113v63.88Z" transform="translate(-32.16 -259.33)"/><path class="cls-1" d="M169.25,263.79h8.3v60.09h33.58v7.63H169.25V263.79Z" transform="translate(-32.16 -259.33)"/><path class="cls-1" d="M213,333.43H167.32V261.87h12.14V322H213v11.48Zm-41.87-3.84h38V325.8H175.62V265.71h-4.45v63.88Z" transform="translate(-32.16 -259.33)"/><path class="cls-1" d="M227.43,321l5.34-6.3a24.57,24.57,0,0,0,18.79,9c8.3,0,13.83-3.91,13.83-10.4,0-7.63-6.1-9.63-15.16-13.07-10-3.72-20.22-8-20.22-19.74,0-10.11,9.16-17.84,20.7-17.93a34.52,34.52,0,0,1,21.46,7.92l-5.05,6.49c-5.34-4.48-11.35-6.68-16.41-6.68-6.29,0-12,3.43-12,9.82s6,8.77,14.4,12.11c11.45,4.39,21,7.54,21,20.22,0,12.49-11,19.08-22.61,19.08A32.61,32.61,0,0,1,227.43,321Z" transform="translate(-32.16 -259.33)"/><path class="cls-1" d="M251.47,333.43A34.49,34.49,0,0,1,226,322.33l-1.17-1.25,7.95-9.37,1.46,1.8a22.77,22.77,0,0,0,17.3,8.25c5.76,0,11.91-2.23,11.91-8.47,0-5.77-4-7.5-12.9-10.88l-1-.39c-9.05-3.36-21.46-8-21.46-21.54,0-11,9.93-19.75,22.6-19.85A36.37,36.37,0,0,1,273.36,269l1.49,1.18-7.45,9.56-1.53-1.28c-4.72-4-10.25-6.23-15.17-6.23s-10.1,2.44-10.1,7.9c-0.07,4.83,4.3,6.79,12.67,10.12l1.77,0.68c10.77,4.11,20.94,8,20.94,21.53C276,322.55,268.32,333.43,251.47,333.43ZM230,320.92a30.62,30.62,0,0,0,21.43,8.67c10,0,20.68-5.37,20.68-17.15,0-10.89-7.75-13.84-18.47-17.94l-1.82-.7c-8.5-3.38-15.21-6-15.1-13.72,0-6.89,5.73-11.72,13.94-11.72,5.26,0,11,2.13,16.08,5.89l2.67-3.42a32.08,32.08,0,0,0-18.75-6.35c-10.52.09-18.78,7.12-18.78,16,0,10.09,8.22,13.95,19,17.94l1,0.39c8.6,3.25,15.39,5.81,15.39,14.48,0,7.48-6.18,12.32-15.75,12.32a26.37,26.37,0,0,1-18.76-8Z" transform="translate(-32.16 -259.33)"/><path class="cls-1" d="M366.5,263.79h8.3v60.09h33.57v7.63H366.5V263.79Z" transform="translate(-32.16 -259.33)"/><path class="cls-1" d="M410.3,333.43H364.58V261.87h12.14V322H410.3v11.48Zm-41.87-3.84h38V325.8H372.88V265.71h-4.45v63.88Z" transform="translate(-32.16 -259.33)"/><path class="cls-1" d="M424.69,263.79h41.49v7.63h-33.1V294h27.18v7.63H433.08v22.22h35.1v7.63H424.69V263.79Z" transform="translate(-32.16 -259.33)"/><path class="cls-1" d="M470.1,333.43H422.77V261.87H468.1v11.48H435V292.1h27.18v11.47H435V322h35.1v11.48Zm-43.49-3.84h39.65V325.8h-35.1V299.73h27.18v-3.78H431.16V269.5h33.1v-3.79H426.61v63.88Z" transform="translate(-32.16 -259.33)"/><path class="cls-1" d="M340.7,306.65h0l-1.34-3.52-15-39.34a4.87,4.87,0,0,0-4.41-2.53,4,4,0,0,0-3.89,2.53L300.6,304.54h0l-0.87,2.28h0l-9.35,24.68h8.77s4.46-12.63,7.92-19.78a33.64,33.64,0,0,0,26.86-.34,38.81,38.81,0,0,1,1.46,3.62l6,16.5h8.77ZM320.15,273.9h0.19l11.43,31.2a21.11,21.11,0,0,1-2.13.95,27.64,27.64,0,0,1-18.91,0,21.13,21.13,0,0,1-2-.86Z" transform="translate(-32.16 -259.33)"/><path class="cls-1" d="M353,333.43H340.07l-6.47-17.77s-0.26-.76-0.66-1.75a35.89,35.89,0,0,1-24.89.28c-3.25,7.12-7,17.84-7.08,18l-0.45,1.28H287.6l26.64-70.32a5.88,5.88,0,0,1,5.69-3.77,6.77,6.77,0,0,1,6.15,3.64l0.05,0.13L342.5,306h0Zm-10.22-3.84h4.64l-24.82-65a3,3,0,0,0-2.65-1.39,2.1,2.1,0,0,0-2.08,1.26l-24.68,65.15h4.64c1.23-3.42,4.69-12.8,7.55-18.7l0.81-1.66,1.69,0.74a30.9,30.9,0,0,0,12.29,2.47,30.56,30.56,0,0,0,13-2.79l1.75-.83,0.82,1.75a40.6,40.6,0,0,1,1.54,3.82Zm-22.62-19.93a28.88,28.88,0,0,1-10.09-1.77,23.16,23.16,0,0,1-2.15-.94l-1.53-.77L318.8,272h2.88L334.15,306l-1.51.78a23.2,23.2,0,0,1-2.32,1A28.77,28.77,0,0,1,320.14,309.66Zm-9-5.45,0.23,0.09a26.18,26.18,0,0,0,17.54,0l0.4-.16-9.1-24.85Z" transform="translate(-32.16 -259.33)"/><path class="cls-1" d="M85.26,306.65h0l-1.34-3.52-15-39.34a4.87,4.87,0,0,0-4.41-2.53,4,4,0,0,0-3.89,2.53L45.16,304.54h0l-0.87,2.28h0l-9.35,24.68h8.77s4.46-12.63,7.92-19.78a33.64,33.64,0,0,0,26.86-.34A38.81,38.81,0,0,1,80,315l6,16.5h8.77ZM64.7,273.9h0.19l11.43,31.2a21.11,21.11,0,0,1-2.13.95,27.64,27.64,0,0,1-18.91,0,21.13,21.13,0,0,1-2-.86Z" transform="translate(-32.16 -259.33)"/><path class="cls-1" d="M97.54,333.43H84.63l-6.47-17.77s-0.26-.76-0.66-1.75a35.89,35.89,0,0,1-24.89.28c-3.25,7.12-7,17.84-7.08,18l-0.45,1.28H32.16L58.8,263.11a5.88,5.88,0,0,1,5.69-3.77A6.77,6.77,0,0,1,70.64,263l0.05,0.13L87.06,306h0Zm-10.22-3.84H92l-24.82-65a3,3,0,0,0-2.65-1.39,2.1,2.1,0,0,0-2.08,1.26L37.73,329.59h4.64c1.23-3.42,4.69-12.8,7.55-18.7l0.81-1.66L52.41,310a30.9,30.9,0,0,0,12.29,2.47,30.56,30.56,0,0,0,13-2.79l1.75-.83,0.82,1.75a40.6,40.6,0,0,1,1.54,3.82ZM64.7,309.66a28.88,28.88,0,0,1-10.09-1.77,23.16,23.16,0,0,1-2.15-.94l-1.53-.77L63.36,272h2.88L78.71,306l-1.51.78a23.2,23.2,0,0,1-2.32,1A28.77,28.77,0,0,1,64.7,309.66Zm-9-5.45L56,304.3a26.18,26.18,0,0,0,17.54,0l0.4-.16-9.1-24.85Z" transform="translate(-32.16 -259.33)"/><path class="cls-1" d="M520.41,297.7c0-20.9,12.83-37.55,36.1-37.55,10.14,0,20.38,4,28.34,13.86l-4.55,3.72c-6.31-7.86-14.9-11.9-23.79-11.9-19,0-30,13.65-30,31.86,0,19.55,13.14,31,30,31,10.66,0,18.21-5,23.79-11.79l4.55,3.72c-6.41,8.07-15.41,13.86-28.34,13.86C536.86,334.53,520.41,321.6,520.41,297.7Z" transform="translate(-32.16 -259.33)"/><path class="cls-1" d="M598.31,260.67h5.79v67.86h38.48v5.59H598.31V260.67Z" transform="translate(-32.16 -259.33)"/><path class="cls-1" d="M652.1,304.53V260.67h5.79V304c0,15.21,8.69,24.83,21.83,24.83s22-9.21,22-24.83V260.67h5.79v43.86c0,18.72-11.07,30.1-27.83,30.1C663.38,334.63,652.1,323.46,652.1,304.53Z" transform="translate(-32.16 -259.33)"/><path class="cls-1" d="M775.2,314.46c0,11.59-8,19.65-24.93,19.65H725.55V260.67H748.2c13.55,0,23.38,5,23.38,17.79,0,7.34-3.83,14.28-11.38,17.07v0.21C768,297.39,775.2,303.49,775.2,314.46Zm-43.86-21.1H749c7.66,0,16.45-3.41,16.45-14,0-8.17-5.28-13.24-18.72-13.24H731.34v27.21ZM769,314.25c0-9.83-7-15.41-19.66-15.41h-18v29.69h17.38C760.82,328.53,769,324,769,314.25Z" transform="translate(-32.16 -259.33)"/><path class="cls-1" d="M786.63,263h-4.35v-1.66h10.53V263h-4.35v12.82h-1.84V263Zm8.47-1.66H797l5.24,9.32,5.24-9.32h1.88v14.48h-1.79V264.71l-4.71,8.11H801.6l-4.71-8.11v11.07H795.1V261.31Z" transform="translate(-32.16 -259.33)"/></svg>