<svg xmlns="http://www.w3.org/2000/svg" xmlns:xlink="http://www.w3.org/1999/xlink" width="827" height="671" viewBox="0 0 827 671">
  <defs>
    <clipPath id="clip-path">
      <rect id="Rectangle_699" data-name="Rectangle 699" width="832" height="671" transform="translate(1130 -2994)" fill="#1A2C4E" stroke="#707070" stroke-width="1"/>
    </clipPath>
    <clipPath id="clip-path-2">
      <rect id="Rectangle_698" data-name="Rectangle 698" width="1920" height="835" transform="translate(0 466)" fill="#1A2C4E"/>
    </clipPath>
    <clipPath id="clip-Artboard_1">
      <rect width="827" height="671"/>
    </clipPath>
  </defs>
  <g id="Artboard_1" data-name="Artboard – 1" clip-path="url(#clip-Artboard_1)">
    <rect width="827" height="671" fill="#1A2C4E"/>
    <g id="Mask_Group_17" data-name="Mask Group 17" transform="translate(-1134 2994)" clip-path="url(#clip-path)">
      <g id="Group_639" data-name="Group 639" transform="translate(1130 -5931)">
        <g id="Group_638" data-name="Group 638" transform="translate(0 -124)">
          <g id="Mask_Group_16" data-name="Mask Group 16" transform="translate(4 2595)" clip-path="url(#clip-path-2)">
            <g id="Group_637" data-name="Group 637" transform="translate(-470.443 101.095)">
              <g id="Group_636" data-name="Group 636" transform="translate(344.946 365)">
                <path id="Path_555" data-name="Path 555" d="M229.534,0c0,42.392-31.358,76.76-70.037,76.76S89.46,42.392,89.46,0H51.91C52.919,63.245,100.7,114.191,159.5,114.191S266.076,63.245,267.085,0Z" transform="translate(36.894)" fill="#6ecbd2"/>
                <path id="Path_556" data-name="Path 556" d="M333.344,0c0,42.392-31.358,76.76-70.037,76.76S193.27,42.392,193.27,0H155.72c1.009,63.245,48.79,114.191,107.587,114.191S369.9,63.245,370.912,0Z" transform="translate(110.674)" fill="#6ecbd2"/>
                <path id="Path_557" data-name="Path 557" d="M437.165,0c0,42.392-31.358,76.76-70.037,76.76S297.09,42.392,297.09,0H259.54c1.009,63.245,48.79,114.191,107.588,114.191S473.706,63.245,474.715,0Z" transform="translate(184.461)" fill="#6ecbd2"/>
                <path id="Path_558" data-name="Path 558" d="M540.975,0c0,42.392-31.358,76.76-70.037,76.76S400.9,42.392,400.9,0H363.35c1.009,63.245,48.79,114.191,107.588,114.191S577.516,63.245,578.525,0Z" transform="translate(258.241)" fill="#6ecbd2"/>
                <path id="Path_559" data-name="Path 559" d="M644.784,0c0,42.392-31.358,76.76-70.037,76.76S504.71,42.392,504.71,0H467.16c1.009,63.245,48.79,114.191,107.587,114.191S681.325,63.245,682.352,0Z" transform="translate(332.022)" fill="#6ecbd2"/>
                <path id="Path_560" data-name="Path 560" d="M748.595,0c0,42.392-31.358,76.76-70.037,76.76S608.52,42.392,608.52,0H570.97c1.009,63.245,48.79,114.191,107.587,114.191S785.153,63.245,786.162,0Z" transform="translate(405.802)" fill="#6ecbd2"/>
                <path id="Path_561" data-name="Path 561" d="M852.414,0c0,42.392-31.358,76.76-70.037,76.76S712.34,42.392,712.34,0H674.79c1.009,63.245,48.79,114.191,107.588,114.191S888.956,63.245,889.965,0Z" transform="translate(479.589)" fill="#6ecbd2"/>
                <path id="Path_562" data-name="Path 562" d="M956.225,0c0,42.392-31.358,76.76-70.037,76.76S816.15,42.392,816.15,0H778.6c1.009,63.245,48.79,114.191,107.587,114.191S992.765,63.245,993.775,0Z" transform="translate(553.369)" fill="#6ecbd2"/>
                <path id="Path_563" data-name="Path 563" d="M1060.035,0c0,42.392-31.357,76.76-70.037,76.76S919.96,42.392,919.96,0H882.41C883.42,63.245,931.2,114.191,990,114.191S1096.576,63.245,1097.585,0Z" transform="translate(627.15)" fill="#6ecbd2"/>
                <path id="Path_564" data-name="Path 564" d="M1163.845,0c0,42.392-31.358,76.76-70.037,76.76S1023.771,42.392,1023.771,0H986.22c1.01,63.245,48.79,114.191,107.588,114.191S1200.386,63.245,1201.4,0Z" transform="translate(700.93)" fill="#6ecbd2"/>
                <path id="Path_565" data-name="Path 565" d="M1267.664,0c0,42.392-31.357,76.76-70.036,76.76S1127.59,42.392,1127.59,0h-37.55c1.009,63.245,48.79,114.191,107.588,114.191S1304.206,63.245,1305.215,0Z" transform="translate(774.717)" fill="#6ecbd2"/>
                <path id="Path_566" data-name="Path 566" d="M177.642,65.04c0,42.392-31.358,76.76-70.037,76.76S37.568,107.432,37.568,65.04H0C1.009,128.3,48.79,179.231,107.587,179.231S214.166,128.285,215.175,65.04H177.642Z" transform="translate(0 46.225)" fill="#6ecbd2"/>
                <path id="Path_567" data-name="Path 567" d="M281.444,65.04c0,42.392-31.358,76.76-70.037,76.76S141.37,107.432,141.37,65.04H103.82c1.009,63.263,48.79,114.191,107.587,114.191S317.985,128.285,318.995,65.04h-37.55Z" transform="translate(73.787 46.225)" fill="#6ecbd2"/>
                <path id="Path_568" data-name="Path 568" d="M385.255,65.04c0,42.392-31.358,76.76-70.037,76.76S245.18,107.432,245.18,65.04H207.63c1.009,63.263,48.79,114.191,107.587,114.191S421.8,128.285,422.8,65.04h-37.55Z" transform="translate(147.568 46.225)" fill="#6ecbd2"/>
                <path id="Path_569" data-name="Path 569" d="M489.065,65.04c0,42.392-31.358,76.76-70.037,76.76S348.99,107.432,348.99,65.04H311.44c1.009,63.263,48.79,114.191,107.587,114.191S525.605,128.285,526.615,65.04h-37.55Z" transform="translate(221.348 46.225)" fill="#6ecbd2"/>
                <path id="Path_570" data-name="Path 570" d="M592.885,65.04c0,42.392-31.358,76.76-70.037,76.76S452.81,107.432,452.81,65.04H415.26c1.009,63.263,48.79,114.191,107.588,114.191S629.426,128.285,630.435,65.04h-37.55Z" transform="translate(295.135 46.225)" fill="#6ecbd2"/>
                <path id="Path_571" data-name="Path 571" d="M696.695,65.04c0,42.392-31.358,76.76-70.037,76.76S556.62,107.432,556.62,65.04H519.07c1.01,63.263,48.79,114.191,107.587,114.191S733.236,128.285,734.245,65.04h-37.55Z" transform="translate(368.915 46.225)" fill="#6ecbd2"/>
                <path id="Path_572" data-name="Path 572" d="M800.5,65.04c0,42.392-31.358,76.76-70.037,76.76S660.43,107.432,660.43,65.04H622.88c1.01,63.263,48.79,114.191,107.587,114.191S837.046,128.285,838.055,65.04H800.5Z" transform="translate(442.696 46.225)" fill="#6ecbd2"/>
                <path id="Path_573" data-name="Path 573" d="M904.315,65.04c0,42.392-31.357,76.76-70.037,76.76S764.24,107.432,764.24,65.04H726.69C727.7,128.3,775.48,179.231,834.278,179.231S940.856,128.285,941.865,65.04h-37.55Z" transform="translate(516.476 46.225)" fill="#6ecbd2"/>
                <path id="Path_574" data-name="Path 574" d="M1008.142,65.04c0,42.392-31.358,76.76-70.037,76.76s-70.037-34.368-70.037-76.76H830.5c1.01,63.263,48.79,114.191,107.588,114.191s106.578-50.945,107.588-114.191h-37.533Z" transform="translate(590.256 46.225)" fill="#6ecbd2"/>
                <path id="Path_575" data-name="Path 575" d="M1111.945,65.04c0,42.392-31.358,76.76-70.037,76.76S971.87,107.432,971.87,65.04H934.32c1.009,63.263,48.79,114.191,107.588,114.191s106.578-50.945,107.587-114.191h-37.55Z" transform="translate(664.044 46.225)" fill="#6ecbd2"/>
                <path id="Path_576" data-name="Path 576" d="M1215.755,65.04c0,42.392-31.358,76.76-70.037,76.76s-70.037-34.368-70.037-76.76H1038.13c1.009,63.263,48.79,114.191,107.588,114.191S1252.3,128.285,1253.3,65.04h-37.55Z" transform="translate(737.824 46.225)" fill="#6ecbd2"/>
                <path id="Path_577" data-name="Path 577" d="M229.534,130.18c0,42.392-31.358,76.76-70.037,76.76S89.46,172.572,89.46,130.18H51.91C52.919,193.443,100.7,244.371,159.5,244.371S266.076,193.425,267.085,130.18Z" transform="translate(36.894 92.522)" fill="#6ecbd2"/>
                <path id="Path_578" data-name="Path 578" d="M437.165,130.18c0,42.392-31.358,76.76-70.037,76.76s-70.037-34.368-70.037-76.76H259.54c1.009,63.263,48.79,114.191,107.588,114.191S473.706,193.425,474.715,130.18Z" transform="translate(184.461 92.522)" fill="#6ecbd2"/>
                <path id="Path_579" data-name="Path 579" d="M540.975,130.18c0,42.392-31.358,76.76-70.037,76.76S400.9,172.572,400.9,130.18H363.35c1.009,63.263,48.79,114.191,107.588,114.191S577.516,193.425,578.525,130.18Z" transform="translate(258.241 92.522)" fill="#6ecbd2"/>
                <path id="Path_580" data-name="Path 580" d="M644.784,130.18c0,42.392-31.358,76.76-70.037,76.76s-70.037-34.368-70.037-76.76H467.16c1.009,63.263,48.79,114.191,107.587,114.191S681.325,193.425,682.335,130.18Z" transform="translate(332.022 92.522)" fill="#6ecbd2"/>
                <path id="Path_581" data-name="Path 581" d="M748.595,130.18c0,42.392-31.358,76.76-70.037,76.76s-70.037-34.368-70.037-76.76H570.97c1.009,63.263,48.79,114.191,107.587,114.191S785.135,193.425,786.145,130.18Z" transform="translate(405.802 92.522)" fill="#6ecbd2"/>
                <path id="Path_582" data-name="Path 582" d="M852.414,130.18c0,42.392-31.358,76.76-70.037,76.76s-70.037-34.368-70.037-76.76H674.79c1.009,63.263,48.79,114.191,107.588,114.191S888.956,193.425,889.965,130.18Z" transform="translate(479.589 92.522)" fill="#6ecbd2"/>
                <path id="Path_583" data-name="Path 583" d="M956.225,130.18c0,42.392-31.358,76.76-70.037,76.76s-70.037-34.368-70.037-76.76H778.6c1.009,63.263,48.79,114.191,107.587,114.191S992.765,193.425,993.775,130.18Z" transform="translate(553.369 92.522)" fill="#6ecbd2"/>
                <path id="Path_584" data-name="Path 584" d="M1060.035,130.18c0,42.392-31.357,76.76-70.037,76.76s-70.037-34.368-70.037-76.76H882.41C883.42,193.443,931.2,244.371,990,244.371s106.578-50.945,107.587-114.191Z" transform="translate(627.15 92.522)" fill="#6ecbd2"/>
                <path id="Path_585" data-name="Path 585" d="M1163.845,130.18c0,42.392-31.358,76.76-70.037,76.76s-70.037-34.368-70.037-76.76H986.22c1.01,63.263,48.79,114.191,107.588,114.191S1200.386,193.425,1201.4,130.18Z" transform="translate(700.93 92.522)" fill="#6ecbd2"/>
                <path id="Path_586" data-name="Path 586" d="M1267.664,130.18c0,42.392-31.357,76.76-70.036,76.76s-70.037-34.368-70.037-76.76h-37.55c1.009,63.263,48.79,114.191,107.588,114.191s106.578-50.945,107.587-114.191Z" transform="translate(774.717 92.522)" fill="#6ecbd2"/>
                <path id="Path_587" data-name="Path 587" d="M177.642,195.23c0,42.392-31.358,76.76-70.037,76.76s-70.037-34.368-70.037-76.76H0c1.009,63.263,48.79,114.191,107.587,114.191S214.166,258.476,215.175,195.23H177.642Z" transform="translate(0 138.755)" fill="#6ecbd2"/>
                <path id="Path_588" data-name="Path 588" d="M281.444,195.23c0,42.392-31.358,76.76-70.037,76.76s-70.037-34.368-70.037-76.76H103.82c1.009,63.263,48.79,114.191,107.587,114.191S317.985,258.476,318.995,195.23h-37.55Z" transform="translate(73.787 138.755)" fill="#6ecbd2"/>
                <path id="Path_589" data-name="Path 589" d="M592.885,195.23c0,42.392-31.358,76.76-70.037,76.76s-70.037-34.368-70.037-76.76H415.26c1.009,63.263,48.79,114.191,107.588,114.191S629.426,258.476,630.435,195.23h-37.55Z" transform="translate(295.135 138.755)" fill="#6ecbd2"/>
                <path id="Path_590" data-name="Path 590" d="M696.695,195.23c0,42.392-31.358,76.76-70.037,76.76s-70.037-34.368-70.037-76.76H519.07c1.01,63.263,48.79,114.191,107.587,114.191S733.236,258.476,734.245,195.23h-37.55Z" transform="translate(368.915 138.755)" fill="#6ecbd2"/>
                <path id="Path_591" data-name="Path 591" d="M800.5,195.23c0,42.392-31.358,76.76-70.037,76.76s-70.037-34.368-70.037-76.76H622.88c1.01,63.263,48.79,114.191,107.587,114.191S837.046,258.476,838.055,195.23H800.5Z" transform="translate(442.696 138.755)" fill="#6ecbd2"/>
                <path id="Path_592" data-name="Path 592" d="M1008.142,195.23c0,42.392-31.358,76.76-70.037,76.76s-70.037-34.368-70.037-76.76H830.5c1.01,63.263,48.79,114.191,107.588,114.191s106.578-50.945,107.588-114.191h-37.533Z" transform="translate(590.256 138.755)" fill="#6ecbd2"/>
                <path id="Path_593" data-name="Path 593" d="M1111.945,195.23c0,42.392-31.358,76.76-70.037,76.76s-70.037-34.368-70.037-76.76H934.32c1.009,63.263,48.79,114.191,107.588,114.191s106.578-50.945,107.587-114.191h-37.55Z" transform="translate(664.044 138.755)" fill="#6ecbd2"/>
                <path id="Path_594" data-name="Path 594" d="M1215.755,195.23c0,42.392-31.358,76.76-70.037,76.76s-70.037-34.368-70.037-76.76H1038.13c1.009,63.263,48.79,114.191,107.588,114.191S1252.3,258.476,1253.3,195.23h-37.55Z" transform="translate(737.824 138.755)" fill="#6ecbd2"/>
                <path id="Path_595" data-name="Path 595" d="M229.534,260.36c0,42.392-31.358,76.76-70.037,76.76S89.46,302.752,89.46,260.36H51.91C52.919,323.623,100.7,374.551,159.5,374.551S266.076,323.606,267.085,260.36Z" transform="translate(36.894 185.044)" fill="#6ecbd2"/>
                <path id="Path_596" data-name="Path 596" d="M333.344,260.36c0,42.392-31.358,76.76-70.037,76.76s-70.037-34.369-70.037-76.76H155.72c1.009,63.263,48.79,114.191,107.587,114.191S369.886,323.606,370.895,260.36Z" transform="translate(110.674 185.044)" fill="#6ecbd2"/>
                <path id="Path_597" data-name="Path 597" d="M437.165,260.36c0,42.392-31.358,76.76-70.037,76.76s-70.037-34.369-70.037-76.76H259.54c1.009,63.263,48.79,114.191,107.588,114.191S473.706,323.606,474.715,260.36Z" transform="translate(184.461 185.044)" fill="#6ecbd2"/>
                <path id="Path_598" data-name="Path 598" d="M540.975,260.36c0,42.392-31.358,76.76-70.037,76.76S400.9,302.752,400.9,260.36H363.35c1.009,63.263,48.79,114.191,107.588,114.191S577.516,323.606,578.525,260.36Z" transform="translate(258.241 185.044)" fill="#6ecbd2"/>
                <path id="Path_599" data-name="Path 599" d="M644.784,260.36c0,42.392-31.358,76.76-70.037,76.76s-70.037-34.369-70.037-76.76H467.16c1.009,63.263,48.79,114.191,107.587,114.191S681.325,323.606,682.335,260.36Z" transform="translate(332.022 185.044)" fill="#6ecbd2"/>
                <path id="Path_600" data-name="Path 600" d="M852.414,260.36c0,42.392-31.358,76.76-70.037,76.76s-70.037-34.369-70.037-76.76H674.79c1.009,63.263,48.79,114.191,107.588,114.191S888.956,323.606,889.965,260.36Z" transform="translate(479.589 185.044)" fill="#6ecbd2"/>
                <path id="Path_601" data-name="Path 601" d="M956.225,260.36c0,42.392-31.358,76.76-70.037,76.76s-70.037-34.369-70.037-76.76H778.6c1.009,63.263,48.79,114.191,107.587,114.191S992.765,323.606,993.775,260.36Z" transform="translate(553.369 185.044)" fill="#6ecbd2"/>
                <path id="Path_602" data-name="Path 602" d="M1060.035,260.36c0,42.392-31.357,76.76-70.037,76.76s-70.037-34.369-70.037-76.76H882.41C883.42,323.623,931.2,374.551,990,374.551s106.578-50.945,107.587-114.191Z" transform="translate(627.15 185.044)" fill="#6ecbd2"/>
                <path id="Path_603" data-name="Path 603" d="M1163.845,260.36c0,42.392-31.358,76.76-70.037,76.76s-70.037-34.369-70.037-76.76H986.22c1.01,63.263,48.79,114.191,107.588,114.191S1200.386,323.606,1201.4,260.36Z" transform="translate(700.93 185.044)" fill="#6ecbd2"/>
                <path id="Path_604" data-name="Path 604" d="M177.642,325.41c0,42.392-31.358,76.743-70.037,76.743S37.568,367.785,37.568,325.41H0C1.009,388.673,48.79,439.6,107.587,439.6S214.166,388.656,215.175,325.41Z" transform="translate(0 231.277)" fill="#6ecbd2"/>
                <path id="Path_605" data-name="Path 605" d="M281.444,325.41c0,42.392-31.358,76.743-70.037,76.743S141.37,367.785,141.37,325.41H103.82C104.829,388.673,152.61,439.6,211.407,439.6S317.985,388.656,318.995,325.41Z" transform="translate(73.787 231.277)" fill="#6ecbd2"/>
                <path id="Path_606" data-name="Path 606" d="M385.255,325.41c0,42.392-31.358,76.743-70.037,76.743S245.18,367.785,245.18,325.41H207.63C208.639,388.673,256.42,439.6,315.217,439.6S421.8,388.656,422.8,325.41Z" transform="translate(147.568 231.277)" fill="#6ecbd2"/>
                <path id="Path_607" data-name="Path 607" d="M489.065,325.41c0,42.392-31.358,76.743-70.037,76.743S348.99,367.785,348.99,325.41H311.44C312.449,388.673,360.23,439.6,419.027,439.6S525.605,388.656,526.615,325.41Z" transform="translate(221.348 231.277)" fill="#6ecbd2"/>
                <path id="Path_608" data-name="Path 608" d="M592.885,325.41c0,42.392-31.358,76.743-70.037,76.743S452.81,367.785,452.81,325.41H415.26C416.269,388.673,464.05,439.6,522.847,439.6S629.426,388.656,630.435,325.41Z" transform="translate(295.135 231.277)" fill="#6ecbd2"/>
                <path id="Path_609" data-name="Path 609" d="M696.695,325.41c0,42.392-31.358,76.743-70.037,76.743S556.62,367.785,556.62,325.41H519.07C520.08,388.673,567.86,439.6,626.657,439.6S733.236,388.656,734.245,325.41Z" transform="translate(368.915 231.277)" fill="#6ecbd2"/>
                <path id="Path_610" data-name="Path 610" d="M800.5,325.41c0,42.392-31.358,76.743-70.037,76.743S660.43,367.785,660.43,325.41H622.88C623.89,388.673,671.67,439.6,730.467,439.6S837.046,388.656,838.055,325.41Z" transform="translate(442.696 231.277)" fill="#6ecbd2"/>
                <path id="Path_611" data-name="Path 611" d="M904.315,325.41c0,42.392-31.357,76.743-70.037,76.743S764.24,367.785,764.24,325.41H726.69C727.7,388.673,775.48,439.6,834.278,439.6S940.856,388.656,941.865,325.41Z" transform="translate(516.476 231.277)" fill="#6ecbd2"/>
                <path id="Path_612" data-name="Path 612" d="M1008.142,325.41c0,42.392-31.358,76.743-70.037,76.743s-70.037-34.369-70.037-76.743H830.5C831.51,388.673,879.29,439.6,938.088,439.6s106.578-50.945,107.588-114.191Z" transform="translate(590.256 231.277)" fill="#6ecbd2"/>
                <path id="Path_613" data-name="Path 613" d="M1215.755,325.41c0,42.392-31.358,76.743-70.037,76.743s-70.037-34.369-70.037-76.743H1038.13c1.009,63.263,48.79,114.191,107.588,114.191S1252.3,388.656,1253.3,325.41Z" transform="translate(737.824 231.277)" fill="#6ecbd2"/>
                <path id="Path_614" data-name="Path 614" d="M229.534,390.54c0,42.392-31.358,76.76-70.037,76.76S89.46,432.932,89.46,390.54H51.91C52.919,453.785,100.7,504.731,159.5,504.731S266.076,453.785,267.085,390.54Z" transform="translate(36.894 277.566)" fill="#6ecbd2"/>
                <path id="Path_615" data-name="Path 615" d="M333.344,390.54c0,42.392-31.358,76.76-70.037,76.76s-70.037-34.369-70.037-76.76H155.72c1.009,63.245,48.79,114.191,107.587,114.191S369.886,453.785,370.895,390.54Z" transform="translate(110.674 277.566)" fill="#6ecbd2"/>
                <path id="Path_616" data-name="Path 616" d="M437.165,390.54c0,42.392-31.358,76.76-70.037,76.76s-70.037-34.369-70.037-76.76H259.54c1.009,63.245,48.79,114.191,107.588,114.191S473.706,453.785,474.715,390.54Z" transform="translate(184.461 277.566)" fill="#6ecbd2"/>
                <path id="Path_617" data-name="Path 617" d="M540.975,390.54c0,42.392-31.358,76.76-70.037,76.76S400.9,432.932,400.9,390.54H363.35c1.009,63.245,48.79,114.191,107.588,114.191S577.516,453.785,578.525,390.54Z" transform="translate(258.241 277.566)" fill="#6ecbd2"/>
                <path id="Path_618" data-name="Path 618" d="M644.784,390.54c0,42.392-31.358,76.76-70.037,76.76s-70.037-34.369-70.037-76.76H467.16c1.009,63.245,48.79,114.191,107.587,114.191S681.325,453.785,682.335,390.54Z" transform="translate(332.022 277.566)" fill="#6ecbd2"/>
                <path id="Path_619" data-name="Path 619" d="M748.595,390.54c0,42.392-31.358,76.76-70.037,76.76s-70.037-34.369-70.037-76.76H570.97c1.009,63.245,48.79,114.191,107.587,114.191S785.135,453.785,786.145,390.54Z" transform="translate(405.802 277.566)" fill="#6ecbd2"/>
                <path id="Path_620" data-name="Path 620" d="M852.414,390.54c0,42.392-31.358,76.76-70.037,76.76s-70.037-34.369-70.037-76.76H674.79c1.009,63.245,48.79,114.191,107.588,114.191S888.956,453.785,889.965,390.54Z" transform="translate(479.589 277.566)" fill="#6ecbd2"/>
                <path id="Path_621" data-name="Path 621" d="M956.225,390.54c0,42.392-31.358,76.76-70.037,76.76s-70.037-34.369-70.037-76.76H778.6c1.009,63.245,48.79,114.191,107.587,114.191S992.765,453.785,993.775,390.54Z" transform="translate(553.369 277.566)" fill="#6ecbd2"/>
                <path id="Path_622" data-name="Path 622" d="M1060.035,390.54c0,42.392-31.357,76.76-70.037,76.76s-70.037-34.369-70.037-76.76H882.41C883.42,453.785,931.2,504.731,990,504.731s106.578-50.945,107.587-114.191Z" transform="translate(627.15 277.566)" fill="#6ecbd2"/>
                <path id="Path_623" data-name="Path 623" d="M1163.845,390.54c0,42.392-31.358,76.76-70.037,76.76s-70.037-34.369-70.037-76.76H986.22c1.01,63.245,48.79,114.191,107.588,114.191S1200.386,453.785,1201.4,390.54Z" transform="translate(700.93 277.566)" fill="#6ecbd2"/>
                <path id="Path_624" data-name="Path 624" d="M1267.664,390.54c0,42.392-31.357,76.76-70.036,76.76s-70.037-34.369-70.037-76.76h-37.55c1.009,63.245,48.79,114.191,107.588,114.191s106.578-50.945,107.587-114.191Z" transform="translate(774.717 277.566)" fill="#6ecbd2"/>
                <path id="Path_625" data-name="Path 625" d="M177.642,455.59c0,42.392-31.358,76.76-70.037,76.76s-70.037-34.368-70.037-76.76H0c1.009,63.263,48.79,114.191,107.587,114.191S214.166,518.835,215.175,455.59Z" transform="translate(0 323.799)" fill="#6ecbd2"/>
                <path id="Path_626" data-name="Path 626" d="M281.444,455.59c0,42.392-31.358,76.76-70.037,76.76s-70.037-34.368-70.037-76.76H103.82c1.009,63.263,48.79,114.191,107.587,114.191S317.985,518.835,318.995,455.59Z" transform="translate(73.787 323.799)" fill="#6ecbd2"/>
                <path id="Path_627" data-name="Path 627" d="M385.255,455.59c0,42.392-31.358,76.76-70.037,76.76s-70.037-34.368-70.037-76.76H207.63c1.009,63.263,48.79,114.191,107.587,114.191S421.8,518.835,422.8,455.59Z" transform="translate(147.568 323.799)" fill="#6ecbd2"/>
                <path id="Path_628" data-name="Path 628" d="M489.065,455.59c0,42.392-31.358,76.76-70.037,76.76s-70.037-34.368-70.037-76.76H311.44c1.009,63.263,48.79,114.191,107.587,114.191S525.605,518.835,526.615,455.59Z" transform="translate(221.348 323.799)" fill="#6ecbd2"/>
                <path id="Path_629" data-name="Path 629" d="M592.885,455.59c0,42.392-31.358,76.76-70.037,76.76s-70.037-34.368-70.037-76.76H415.26c1.009,63.263,48.79,114.191,107.588,114.191S629.426,518.835,630.435,455.59Z" transform="translate(295.135 323.799)" fill="#6ecbd2"/>
                <path id="Path_630" data-name="Path 630" d="M696.695,455.59c0,42.392-31.358,76.76-70.037,76.76s-70.037-34.368-70.037-76.76H519.07c1.01,63.263,48.79,114.191,107.587,114.191S733.236,518.835,734.245,455.59Z" transform="translate(368.915 323.799)" fill="#6ecbd2"/>
                <path id="Path_631" data-name="Path 631" d="M800.5,455.59c0,42.392-31.358,76.76-70.037,76.76s-70.037-34.368-70.037-76.76H622.88c1.01,63.263,48.79,114.191,107.587,114.191S837.046,518.835,838.055,455.59Z" transform="translate(442.696 323.799)" fill="#6ecbd2"/>
                <path id="Path_632" data-name="Path 632" d="M904.315,455.59c0,42.392-31.357,76.76-70.037,76.76s-70.037-34.368-70.037-76.76H726.69c1.009,63.263,48.79,114.191,107.588,114.191S940.856,518.835,941.865,455.59Z" transform="translate(516.476 323.799)" fill="#6ecbd2"/>
                <path id="Path_633" data-name="Path 633" d="M1008.142,455.59c0,42.392-31.358,76.76-70.037,76.76s-70.037-34.368-70.037-76.76H830.5c1.01,63.263,48.79,114.191,107.588,114.191s106.578-50.946,107.588-114.191Z" transform="translate(590.256 323.799)" fill="#6ecbd2"/>
                <path id="Path_634" data-name="Path 634" d="M1111.945,455.59c0,42.392-31.358,76.76-70.037,76.76s-70.037-34.368-70.037-76.76H934.32c1.009,63.263,48.79,114.191,107.588,114.191s106.578-50.946,107.587-114.191Z" transform="translate(664.044 323.799)" fill="#6ecbd2"/>
                <path id="Path_635" data-name="Path 635" d="M1215.755,455.59c0,42.392-31.358,76.76-70.037,76.76s-70.037-34.368-70.037-76.76H1038.13c1.009,63.263,48.79,114.191,107.588,114.191S1252.3,518.835,1253.3,455.59Z" transform="translate(737.824 323.799)" fill="#6ecbd2"/>
                <path id="Path_636" data-name="Path 636" d="M229.534,520.73c0,42.392-31.358,76.76-70.037,76.76S89.46,563.122,89.46,520.73H51.91C52.919,583.975,100.7,634.921,159.5,634.921S266.076,583.975,267.085,520.73Z" transform="translate(36.894 370.095)" fill="#6ecbd2"/>
                <path id="Path_637" data-name="Path 637" d="M333.344,520.73c0,42.392-31.358,76.76-70.037,76.76s-70.037-34.368-70.037-76.76H155.72c1.009,63.245,48.79,114.191,107.587,114.191S369.886,583.975,370.895,520.73Z" transform="translate(110.674 370.095)" fill="#6ecbd2"/>
                <path id="Path_638" data-name="Path 638" d="M437.165,520.73c0,42.392-31.358,76.76-70.037,76.76s-70.037-34.368-70.037-76.76H259.54c1.009,63.245,48.79,114.191,107.588,114.191S473.706,583.975,474.715,520.73Z" transform="translate(184.461 370.095)" fill="#6ecbd2"/>
                <path id="Path_639" data-name="Path 639" d="M540.975,520.73c0,42.392-31.358,76.76-70.037,76.76S400.9,563.122,400.9,520.73H363.35c1.009,63.245,48.79,114.191,107.588,114.191S577.516,583.975,578.525,520.73Z" transform="translate(258.241 370.095)" fill="#6ecbd2"/>
                <path id="Path_640" data-name="Path 640" d="M644.784,520.73c0,42.392-31.358,76.76-70.037,76.76s-70.037-34.368-70.037-76.76H467.16c1.009,63.245,48.79,114.191,107.587,114.191S681.325,583.975,682.335,520.73Z" transform="translate(332.022 370.095)" fill="#6ecbd2"/>
                <path id="Path_641" data-name="Path 641" d="M748.595,520.73c0,42.392-31.358,76.76-70.037,76.76s-70.037-34.368-70.037-76.76H570.97c1.009,63.245,48.79,114.191,107.587,114.191S785.135,583.975,786.145,520.73Z" transform="translate(405.802 370.095)" fill="#6ecbd2"/>
                <path id="Path_642" data-name="Path 642" d="M852.414,520.73c0,42.392-31.358,76.76-70.037,76.76s-70.037-34.368-70.037-76.76H674.79c1.009,63.245,48.79,114.191,107.588,114.191S888.956,583.975,889.965,520.73Z" transform="translate(479.589 370.095)" fill="#6ecbd2"/>
                <path id="Path_643" data-name="Path 643" d="M956.225,520.73c0,42.392-31.358,76.76-70.037,76.76s-70.037-34.368-70.037-76.76H778.6c1.009,63.245,48.79,114.191,107.587,114.191S992.765,583.975,993.775,520.73Z" transform="translate(553.369 370.095)" fill="#6ecbd2"/>
                <path id="Path_644" data-name="Path 644" d="M1060.035,520.73c0,42.392-31.357,76.76-70.037,76.76s-70.037-34.368-70.037-76.76H882.41C883.42,583.975,931.2,634.921,990,634.921s106.578-50.946,107.587-114.191Z" transform="translate(627.15 370.095)" fill="#6ecbd2"/>
                <path id="Path_645" data-name="Path 645" d="M1163.845,520.73c0,42.392-31.358,76.76-70.037,76.76s-70.037-34.368-70.037-76.76H986.22c1.01,63.245,48.79,114.191,107.588,114.191S1200.386,583.975,1201.4,520.73Z" transform="translate(700.93 370.095)" fill="#6ecbd2"/>
                <path id="Path_646" data-name="Path 646" d="M1267.664,520.73c0,42.392-31.357,76.76-70.036,76.76s-70.037-34.368-70.037-76.76h-37.55c1.009,63.245,48.79,114.191,107.588,114.191s106.578-50.946,107.587-114.191Z" transform="translate(774.717 370.095)" fill="#6ecbd2"/>
                <path id="Path_647" data-name="Path 647" d="M904.315,195.23c0,42.392-31.357,76.76-70.037,76.76s-70.037-34.368-70.037-76.76H726.69c1.009,63.263,48.79,114.191,107.588,114.191S940.856,258.476,941.865,195.23h-37.55Z" transform="translate(516.476 138.755)" fill="#6ecbd2"/>
                <path id="Path_648" data-name="Path 648" d="M1111.945,325.41c0,42.392-31.358,76.743-70.037,76.743S971.87,367.785,971.87,325.41H934.32c1.009,63.263,48.79,114.191,107.588,114.191s106.578-50.945,107.587-114.191Z" transform="translate(664.044 231.277)" fill="#6ecbd2"/>
                <path id="Path_649" data-name="Path 649" d="M1267.664,260.36c0,42.392-31.357,76.76-70.036,76.76s-70.037-34.369-70.037-76.76h-37.55c1.009,63.263,48.79,114.191,107.588,114.191s106.578-50.945,107.587-114.191Z" transform="translate(774.717 185.044)" fill="#6ecbd2"/>
                <path id="Path_650" data-name="Path 650" d="M748.595,260.36c0,42.392-31.358,76.76-70.037,76.76s-70.037-34.369-70.037-76.76H570.97c1.009,63.263,48.79,114.191,107.587,114.191S785.135,323.606,786.145,260.36Z" transform="translate(405.802 185.044)" fill="#6ecbd2"/>
                <rect id="Rectangle_697" data-name="Rectangle 697" width="1429.481" height="804.074" transform="translate(166.522 38.594)" fill="none"/>
                <path id="Path_651" data-name="Path 651" d="M333.344,130.18c0,42.392-31.358,76.76-70.037,76.76s-70.037-34.368-70.037-76.76H155.72c1.009,63.263,48.79,114.191,107.587,114.191S369.886,193.425,370.895,130.18Z" transform="translate(110.674 92.522)" fill="#6ecbd2"/>
                <path id="Path_652" data-name="Path 652" d="M385.255,195.23c0,42.392-31.358,76.76-70.037,76.76s-70.037-34.368-70.037-76.76H207.63c1.009,63.263,48.79,114.191,107.587,114.191S421.8,258.476,422.8,195.23h-37.55Z" transform="translate(147.568 138.755)" fill="#6ecbd2"/>
                <path id="Path_653" data-name="Path 653" d="M385.255,195.23c0,42.392-31.358,76.76-70.037,76.76s-70.037-34.368-70.037-76.76H207.63c1.009,63.263,48.79,114.191,107.587,114.191S421.8,258.476,422.8,195.23h-37.55Z" transform="translate(325.568 138.755)" fill="#f26c40"/>
              </g>
            </g>
          </g>
        </g>
      </g>
    </g>
  </g>
</svg>
