<svg xmlns="http://www.w3.org/2000/svg" width="18.28" height="18.28" viewBox="0 0 18.28 18.28"><defs><style>.a{fill:#f26c40;}</style></defs><path class="a" d="M6.484,16.624a1.828,1.828,0,1,0,1.828,1.828A1.826,1.826,0,0,0,6.484,16.624ZM1,2V3.828H2.828l3.29,6.937L4.885,13a1.767,1.767,0,0,0-.229.877A1.833,1.833,0,0,0,6.484,15.71H17.452V13.882H6.868a.226.226,0,0,1-.229-.229l.027-.11.823-1.49H14.3a1.819,1.819,0,0,0,1.6-.941l3.272-5.932a.893.893,0,0,0,.11-.439.917.917,0,0,0-.914-.914H4.848L3.989,2H1ZM15.624,16.624a1.828,1.828,0,1,0,1.828,1.828A1.826,1.826,0,0,0,15.624,16.624Z" transform="translate(-1 -2)"/></svg>