<svg xmlns="http://www.w3.org/2000/svg" viewBox="0 0 5.86 5.86"><defs><style>.a{fill:#fff;}</style></defs><title>Untitled-1</title><path class="a" d="M418,325.19l-1.55-1.52,1.55-1.52a0.32,0.32,0,0,0,0-.4l-0.94-.94a0.25,0.25,0,0,0-.19-0.07,0.34,0.34,0,0,0-.21.07l-1.52,1.55-1.52-1.55a0.32,0.32,0,0,0-.4,0l-0.94.94a0.25,0.25,0,0,0-.07.19,0.34,0.34,0,0,0,.07.21l1.55,1.52-1.55,1.52a0.32,0.32,0,0,0,0,.4l0.94,0.94a0.25,0.25,0,0,0,.19.07,0.34,0.34,0,0,0,.21-0.07l1.52-1.55,1.52,1.55a0.32,0.32,0,0,0,.4,0l0.94-.94a0.25,0.25,0,0,0,.07-0.19A0.34,0.34,0,0,0,418,325.19Z" transform="translate(-412.24 -320.74)"/></svg>